:FULLY-SPECIFIED
:FORCE-ALL-JOINTS-BE-3DOF
:DEGREES
170
root 6.35951 15.9269 -25.8505 1.25534 16.9889 1.20746
lfemur -9.89999 18.0201 -10.0951
ltibia 26.1267 0 0
lfoot -17.6578 5.84862 0
ltoes 37.1545 0 0
rfemur -53.0993 -24.8813 8.24562
rtibia 91.7254 0 0
rfoot 7.49935 11.0254 0
rtoes 11.6803 0 0
lowerback 4.954 -5.10672 -3.48134
upperback 1.24555 -7.04641 -2.60014
thorax -1.01776 -3.50434 -0.201168
lowerneck -11.3207 -2.47771 1.08746
upperneck 2.10231 -3.6844 4.08155
head 2.78906 -1.65525 0.921923
lclavicle 2.0584e-014 -1.04771e-014 0
lhumerus -45.6172 -40.381 105.812
lradius 50.1887 0 0
lwrist 16.0295 0 0
lhand 33.7718 22.3486 0
lfingers 7.12502 0 0
lthumb 56.9937 38.4176 0
rclavicle 2.0584e-014 -1.04771e-014 0
rhumerus -39.1824 -18.725 -54.5362
rradius 83.0101 0 0
rwrist -9.44215 0 0
rhand -2.00432 -20.7661 0
rfingers 7.12502 0 0
rthumb 23.5789 -408.203 0
171
root 6.31662 15.9017 -25.8389 1.4236 16.456 1.33467
lfemur -9.39502 17.4639 -9.78688
ltibia 25.5416 0 0
lfoot -18.1853 5.33167 0
ltoes 37.4321 0 0
rfemur -52.4829 -24.7367 7.76241
rtibia 90.5576 0 0
rfoot 6.52843 11.2296 0
rtoes 13.0675 0 0
lowerback 4.71886 -5.00314 -3.39395
upperback 1.19182 -6.89883 -2.74628
thorax -0.961962 -3.43132 -0.42124
lowerneck -11.327 -2.39632 1.25485
upperneck 2.15225 -3.59921 4.03485
head 2.80332 -1.61145 0.882283
lclavicle 1.93484e-014 -1.11319e-014 0
lhumerus -46.0055 -40.569 106.11
lradius 50.2974 0 0
lwrist 16.3143 0 0
lhand 33.9605 22.5716 0
lfingers 7.12502 0 0
lthumb 57.157 38.4839 0
rclavicle 1.93484e-014 -1.11319e-014 0
rhumerus -38.1344 -18.7684 -53.3435
rradius 82.1454 0 0
rwrist -9.81251 0 0
rhand -2.81923 -21.751 0
rfingers 7.12502 0 0
rthumb 22.7959 -409.259 0
172
root 6.27373 15.8765 -25.8273 1.59186 15.923 1.46188
lfemur -8.89006 16.9077 -9.47868
ltibia 24.9564 0 0
lfoot -18.7129 4.81472 0
ltoes 37.7098 0 0
rfemur -51.8664 -24.5921 7.2792
rtibia 89.3897 0 0
rfoot 5.55751 11.4338 0
rtoes 14.4547 0 0
lowerback 4.48371 -4.89956 -3.30657
upperback 1.1381 -6.75125 -2.89241
thorax -0.906167 -3.35831 -0.641312
lowerneck -11.3333 -2.31493 1.42224
upperneck 2.20219 -3.51401 3.98815
head 2.81758 -1.56764 0.842644
lclavicle 1.81128e-014 -1.17868e-014 0
lhumerus -46.3939 -40.757 106.408
lradius 50.406 0 0
lwrist 16.5991 0 0
lhand 34.1493 22.7946 0
lfingers 7.12502 0 0
lthumb 57.3202 38.5502 0
rclavicle 1.81128e-014 -1.17868e-014 0
rhumerus -37.0864 -18.8117 -52.1509
rradius 81.2807 0 0
rwrist -10.1829 0 0
rhand -3.63415 -22.7359 0
rfingers 7.12502 0 0
rthumb 22.0129 -410.316 0
173
root 6.23084 15.8513 -25.8157 1.76012 15.39 1.58909
lfemur -8.3851 16.3516 -9.17048
ltibia 24.3712 0 0
lfoot -19.2405 4.29777 0
ltoes 37.9874 0 0
rfemur -51.25 -24.4474 6.796
rtibia 88.2219 0 0
rfoot 4.58659 11.6381 0
rtoes 15.8418 0 0
lowerback 4.24856 -4.79598 -3.21918
upperback 1.08438 -6.60367 -3.03855
thorax -0.850373 -3.28529 -0.861384
lowerneck -11.3397 -2.23354 1.58964
upperneck 2.25213 -3.42882 3.94146
head 2.83184 -1.52384 0.803005
lclavicle 1.68772e-014 -1.24416e-014 0
lhumerus -46.7822 -40.9451 106.705
lradius 50.5146 0 0
lwrist 16.8839 0 0
lhand 34.3381 23.0177 0
lfingers 7.12502 0 0
lthumb 57.4835 38.6165 0
rclavicle 1.68772e-014 -1.24416e-014 0
rhumerus -36.0384 -18.8551 -50.9583
rradius 80.416 0 0
rwrist -10.5532 0 0
rhand -4.44906 -23.7208 0
rfingers 7.12502 0 0
rthumb 21.2299 -411.372 0
